<?xml version="1.0" encoding="utf-8"?>
<!-- Generator: Adobe Illustrator 21.1.0, SVG Export Plug-In . SVG Version: 6.00 Build 0)  -->
<svg version="1.1" id="Layer_1" xmlns="http://www.w3.org/2000/svg" xmlns:xlink="http://www.w3.org/1999/xlink" x="0px" y="0px"
	 viewBox="0 0 444.1 299" style="enable-background:new 0 0 444.1 299;" xml:space="preserve">
<style type="text/css">
	.st0{fill:#333333;}
	.st1{font-family:'Roboto', sans-serif; font-weight:300;}
	.st2{font-size:8px;}
	.st3{font-family:'Roboto', sans-serif; font-weight:400;}
	.st4{font-size:10px;}
	.st5{fill:#DC5356;}
	.st6{fill:#798CF0;}
	.st7{fill:#F0CB69;}
	.st8{fill:#79B8F0;}
	.st9{fill:#79B88D;}
	.st10{fill:#FFFFFF;}
	.st11{font-size:8px;}
</style>
<g>
	<text transform="matrix(1 0 0 1 52.8804 242.0769)" class="st0 st1 st2">Chrysler Group</text>
</g>
<g>
	<text transform="matrix(1 0 0 1 42.8931 29.077)" class="st0 st3 st4">Top Auto Sales in the USA. 2016</text>
</g>
<g>
	<text transform="matrix(1 0 0 1 125.6104 242.0769)" class="st0 st1 st2">Ford</text>
</g>
<g>
	<text transform="matrix(1 0 0 1 166.0811 242.0769)" class="st0 st1 st2">GMC</text>
</g>
<g>
	<text transform="matrix(1 0 0 1 203.6924 242.0769)" class="st0 st1 st2">Nissan</text>
</g>
<g>
	<text transform="matrix(1 0 0 1 249.4893 242.0769)" class="st0 st1 st2">Toyota</text>
</g>
<rect x="264.1" y="164.3" class="st5" width="48.5" height="62.9"/>
<rect x="182.8" y="164.3" class="st5" width="81" height="62.9"/>
<polygon class="st6" points="132.8,170.8 132.8,170.4 181.4,170.4 181.4,104.9 132.7,104.9 132.7,227.1 181.4,227.1 181.4,170.8 "/>
<rect x="314" y="94.8" class="st7" width="84.5" height="50.4"/>
<rect x="359.6" y="145.6" class="st7" width="38.9" height="81.5"/>
<rect x="314" y="145.6" class="st7" width="45.3" height="81.5"/>
<rect x="136.2" y="39.4" class="st8" width="45.2" height="64.1"/>
<rect x="266.9" y="122" class="st9" width="45.7" height="40.8"/>
<rect x="266.9" y="101.9" class="st9" width="45.7" height="19.8"/>
<rect x="182.8" y="122" class="st9" width="83.7" height="40.8"/>
<rect x="266.9" y="39.4" class="st9" width="45.7" height="62.2"/>
<rect x="314" y="39.4" class="st7" width="84.5" height="55.1"/>
<rect x="42.1" y="39.4" class="st8" width="93.7" height="64.1"/>
<rect x="182.8" y="39.4" class="st9" width="83.7" height="82.3"/>
<rect x="42.1" y="104.9" class="st6" width="90.2" height="122.2"/>
<rect x="41.7" y="235.2" class="st8" width="7.4" height="7.4"/>
<rect x="114.3" y="235.2" class="st6" width="7.4" height="7.4"/>
<rect x="154.7" y="235.2" class="st9" width="7.4" height="7.4"/>
<rect x="192.6" y="235.2" class="st5" width="7.4" height="7.4"/>
<rect x="237.8" y="235.2" class="st7" width="7.4" height="7.4"/>
<text transform="matrix(1 0 0 1 76.0694 73.6364)" class="st10 st1 st11">Dodge</text>
<text transform="matrix(1 0 0 1 76.1142 169.0422)" class="st10 st1 st11">Ford F</text>
<text transform="matrix(1 0 0 1 198.9702 199.8932)" class="st10 st1 st11">Nissan Rogue</text>
<text transform="matrix(1 0 0 1 276.6215 195.0929)"><tspan x="0" y="0" class="st10 st1 st11">Nissan</tspan><tspan x="0.9" y="9.6" class="st10 st1 st11">Altima</tspan></text>
<text transform="matrix(1 0 0 1 280.1116 67.9806)"><tspan x="0" y="0" class="st10 st1 st11">GMC</tspan><tspan x="-1.5" y="9.6" class="st10 st1 st11">Sierra</tspan></text>
<text transform="matrix(1 0 0 1 216.6971 81.4109)"><tspan x="0" y="0" class="st10 st1 st11">GMC</tspan><tspan x="-2.3" y="9.6" class="st10 st1 st11">Yukon</tspan></text>
<text transform="matrix(1 0 0 1 216.697 139.7524)"><tspan x="0" y="0" class="st10 st1 st11">GMC</tspan><tspan x="-4.6" y="9.6" class="st10 st1 st11">Canyon</tspan></text>
<text transform="matrix(1 0 0 1 280.1109 139.7524)"><tspan x="0" y="0" class="st10 st1 st11">GMC</tspan><tspan x="-3.7" y="9.6" class="st10 st1 st11">Terrain</tspan></text>
<text transform="matrix(1 0 0 1 147.4626 139.7527)"><tspan x="0" y="0" class="st10 st1 st11">Ford </tspan><tspan x="-3.8" y="9.6" class="st10 st1 st11">Escape</tspan></text>
<text transform="matrix(1 0 0 1 147.4623 195.093)"><tspan x="0" y="0" class="st10 st1 st11">Ford </tspan><tspan x="-5.3" y="9.6" class="st10 st1 st11">Explorer</tspan></text>
<text transform="matrix(1 0 0 1 146.6477 74.9676)" class="st10 st1 st11">Jeep</text>
<text transform="matrix(1 0 0 1 272.2501 114.0907)" class="st10 st1 st11">Chevrolet</text>
<text transform="matrix(1 0 0 1 336.5408 71.1323)" class="st10 st1 st11">Toyota Rav4</text>
<text transform="matrix(1 0 0 1 333.8555 122.2266)" class="st10 st1 st11">Toyota Camry</text>
<text transform="matrix(1 0 0 1 324.827 178.6294)"><tspan x="0" y="0" class="st10 st1 st11">Toyota</tspan><tspan x="-0.1" y="9.6" class="st10 st1 st11">Corolla</tspan></text>
<text transform="matrix(1 0 0 1 366.2996 178.6294)"><tspan x="0" y="0" class="st10 st1 st11">Toyota</tspan><tspan x="3.4" y="9.6" class="st10 st1 st11">Yaris</tspan></text>
</svg>
